<mxfile host="app.diagrams.net" agent="Mozilla/5.0 (Windows NT 10.0; Win64; x64) AppleWebKit/537.36 (KHTML, like Gecko) Chrome/131.0.0.0 Safari/537.36 Edg/131.0.0.0" version="25.0.3">
  <diagram name="Page-1" id="Jl_npFH5Yj2_PmD-pZwg">
    <mxGraphModel dx="2314" dy="1187" grid="1" gridSize="10" guides="1" tooltips="1" connect="1" arrows="1" fold="1" page="1" pageScale="1" pageWidth="850" pageHeight="1100" math="0" shadow="0">
      <root>
        <mxCell id="0" />
        <mxCell id="1" parent="0" />
        <mxCell id="BjMexAeEebLPS58inpm7-13" value="Preprocess" style="edgeStyle=orthogonalEdgeStyle;rounded=0;orthogonalLoop=1;jettySize=auto;html=1;exitX=1;exitY=0.5;exitDx=0;exitDy=0;entryX=0;entryY=0.5;entryDx=0;entryDy=0;" edge="1" parent="1" source="BjMexAeEebLPS58inpm7-11" target="BjMexAeEebLPS58inpm7-12">
          <mxGeometry relative="1" as="geometry" />
        </mxCell>
        <mxCell id="BjMexAeEebLPS58inpm7-11" value="F x == 9" style="rounded=0;whiteSpace=wrap;html=1;" vertex="1" parent="1">
          <mxGeometry x="40" y="110" width="120" height="60" as="geometry" />
        </mxCell>
        <mxCell id="BjMexAeEebLPS58inpm7-15" value="Convert" style="edgeStyle=orthogonalEdgeStyle;rounded=0;orthogonalLoop=1;jettySize=auto;html=1;exitX=1;exitY=0.5;exitDx=0;exitDy=0;entryX=0;entryY=0.5;entryDx=0;entryDy=0;" edge="1" parent="1" source="BjMexAeEebLPS58inpm7-12" target="BjMexAeEebLPS58inpm7-14">
          <mxGeometry relative="1" as="geometry" />
        </mxCell>
        <mxCell id="BjMexAeEebLPS58inpm7-12" value="F p0" style="rounded=0;whiteSpace=wrap;html=1;" vertex="1" parent="1">
          <mxGeometry x="240" y="110" width="120" height="60" as="geometry" />
        </mxCell>
        <mxCell id="BjMexAeEebLPS58inpm7-17" value="BuchiBuilder" style="edgeStyle=orthogonalEdgeStyle;rounded=0;orthogonalLoop=1;jettySize=auto;html=1;exitX=1;exitY=0.5;exitDx=0;exitDy=0;entryX=0;entryY=0.5;entryDx=0;entryDy=0;" edge="1" parent="1" source="BjMexAeEebLPS58inpm7-14" target="BjMexAeEebLPS58inpm7-16">
          <mxGeometry relative="1" as="geometry" />
        </mxCell>
        <mxCell id="BjMexAeEebLPS58inpm7-14" value="HOA v1..." style="rounded=0;whiteSpace=wrap;html=1;" vertex="1" parent="1">
          <mxGeometry x="440" y="110" width="120" height="60" as="geometry" />
        </mxCell>
        <mxCell id="BjMexAeEebLPS58inpm7-16" value="CFA" style="rounded=0;whiteSpace=wrap;html=1;" vertex="1" parent="1">
          <mxGeometry x="640" y="110" width="120" height="60" as="geometry" />
        </mxCell>
      </root>
    </mxGraphModel>
  </diagram>
</mxfile>
